{
  "accessors": [
    {
      "bufferView": 2,
      "componentType": 5126,
      "count": 65532,
      "max": [
        0.716385006904602,
        4.541438102722168,
        1.5888420343399048
      ],
      "min": [
        -1.1000219583511353,
        2.4903340339660645,
        -1.8506449460983276
      ],
      "type": "VEC3"
    },
    {
      "bufferView": 2,
      "byteOffset": 786384,
      "componentType": 5126,
      "count": 65532,
      "max": [
        0.9999876618385315,
        0.99990314245224,
        0.999986469745636
      ],
      "min": [
        -0.9999882578849792,
        -0.9999932646751404,
        -0.999963641166687
      ],
      "type": "VEC3"
    },
    {
      "bufferView": 3,
      "componentType": 5126,
      "count": 65532,
      "max": [
        0.9960784316062927,
        0.9960784316062927,
        0.9960784316062927,
        1.0
      ],
      "min": [
        0.0,
        0.0,
        0.0,
        1.0
      ],
      "type": "VEC4"
    },
    {
      "bufferView": 1,
      "componentType": 5126,
      "count": 65532,
      "max": [
        0.9999390244483948,
        0.9977530241012573
      ],
      "min": [
        6.000000212225132e-06,
        0.004290999844670296
      ],
      "type": "VEC2"
    },
    {
      "bufferView": 0,
      "componentType": 5125,
      "count": 355086,
      "type": "SCALAR"
    },
    {
      "bufferView": 2,
      "byteOffset": 1572768,
      "componentType": 5126,
      "count": 25086,
      "max": [
        0.154339000582695,
        5.146398067474365,
        1.586366057395935
      ],
      "min": [
        -1.4235390424728394,
        2.706062078475952,
        -2.001512050628662
      ],
      "type": "VEC3"
    },
    {
      "bufferView": 2,
      "byteOffset": 1873800,
      "componentType": 5126,
      "count": 25086,
      "max": [
        0.9999651312828064,
        0.9999565482139587,
        0.9997441172599792
      ],
      "min": [
        -0.9999750256538391,
        -1.0,
        -0.9998317360877991
      ],
      "type": "VEC3"
    },
    {
      "bufferView": 3,
      "byteOffset": 1048512,
      "componentType": 5126,
      "count": 25086,
      "max": [
        0.7490196228027344,
        0.7215686440467834,
        0.6980392336845398,
        1.0
      ],
      "min": [
        0.0,
        0.0,
        0.0,
        1.0
      ],
      "type": "VEC4"
    },
    {
      "bufferView": 1,
      "byteOffset": 524256,
      "componentType": 5126,
      "count": 25086,
      "max": [
        0.9999570250511169,
        0.9982749819755554
      ],
      "min": [
        3.000000106112566e-06,
        0.0025019999593496323
      ],
      "type": "VEC2"
    },
    {
      "bufferView": 0,
      "byteOffset": 1420344,
      "componentType": 5125,
      "count": 125265,
      "type": "SCALAR"
    }
  ],
  "asset": {
    "extras": {
      "author": "jeronimovoss (https://sketchfab.com/jeronimovoss)",
      "license": "CC-BY-4.0 (http://creativecommons.org/licenses/by/4.0/)",
      "source": "https://sketchfab.com/3d-models/coq-automate-iii-a88e70ded0be442ca999602f391b51c0",
      "title": "Coq Automate III"
    },
    "generator": "Sketchfab-11.53.0",
    "version": "2.0"
  },
  "bufferViews": [
    {
      "buffer": 0,
      "byteLength": 1921404,
      "name": "floatBufferViews",
      "target": 34963
    },
    {
      "buffer": 0,
      "byteLength": 724944,
      "byteOffset": 1921404,
      "byteStride": 8,
      "name": "floatBufferViews",
      "target": 34962
    },
    {
      "buffer": 0,
      "byteLength": 2174832,
      "byteOffset": 2646348,
      "byteStride": 12,
      "name": "floatBufferViews",
      "target": 34962
    },
    {
      "buffer": 0,
      "byteLength": 1449888,
      "byteOffset": 4821180,
      "byteStride": 16,
      "name": "floatBufferViews",
      "target": 34962
    }
  ],
  "buffers": [
    {
      "byteLength": 6271068,
      "uri": "scene.bin"
    }
  ],
  "materials": [
    {
      "doubleSided": true,
      "name": "test3_tif_coq",
      "pbrMetallicRoughness": {
        "metallicFactor": 0.0,
        "roughnessFactor": 0.6
      }
    }
  ],
  "meshes": [
    {
      "name": "Object_0",
      "primitives": [
        {
          "attributes": {
            "COLOR_0": 2,
            "NORMAL": 1,
            "POSITION": 0,
            "TEXCOORD_0": 3
          },
          "indices": 4,
          "material": 0,
          "mode": 4
        }
      ]
    },
    {
      "name": "Object_1",
      "primitives": [
        {
          "attributes": {
            "COLOR_0": 7,
            "NORMAL": 6,
            "POSITION": 5,
            "TEXCOORD_0": 8
          },
          "indices": 9,
          "material": 0,
          "mode": 4
        }
      ]
    }
  ],
  "nodes": [
    {
      "children": [
        1
      ],
      "matrix": [
        1.0,
        0.0,
        0.0,
        0.0,
        0.0,
        2.220446049250313e-16,
        -1.0,
        0.0,
        0.0,
        1.0,
        2.220446049250313e-16,
        0.0,
        0.0,
        0.0,
        0.0,
        1.0
      ],
      "name": "Sketchfab_model"
    },
    {
      "children": [
        2,
        3
      ],
      "name": "test3 tif coq.obj.cleaner.materialmerger.gles"
    },
    {
      "mesh": 0,
      "name": "Object_2"
    },
    {
      "mesh": 1,
      "name": "Object_3"
    }
  ],
  "scene": 0,
  "scenes": [
    {
      "name": "Sketchfab_Scene",
      "nodes": [
        0
      ]
    }
  ]
}
